<svg xmlns="http://www.w3.org/2000/svg" xmlns:xlink="http://www.w3.org/1999/xlink" width="128" zoomAndPan="magnify" viewBox="0 0 96 95.999999" height="128" preserveAspectRatio="xMidYMid meet" version="1.0"><defs><g/><clipPath id="c0a81a6af3"><path d="M 1.199219 1.199219 L 95.101562 1.199219 L 95.101562 95.101562 L 1.199219 95.101562 Z M 1.199219 1.199219 " clip-rule="nonzero"/></clipPath><clipPath id="0e10803402"><path d="M 48.148438 1.199219 C 22.21875 1.199219 1.199219 22.21875 1.199219 48.148438 C 1.199219 74.078125 22.21875 95.101562 48.148438 95.101562 C 74.078125 95.101562 95.101562 74.078125 95.101562 48.148438 C 95.101562 22.21875 74.078125 1.199219 48.148438 1.199219 Z M 48.148438 1.199219 " clip-rule="nonzero"/></clipPath></defs><g clip-path="url(#c0a81a6af3)"><g clip-path="url(#0e10803402)"><path fill="#292634" d="M 1.199219 1.199219 L 95.101562 1.199219 L 95.101562 95.101562 L 1.199219 95.101562 Z M 1.199219 1.199219 " fill-opacity="1" fill-rule="nonzero"/></g></g><g fill="#e99318" fill-opacity="1"><g transform="translate(11.111963, 74.984117)"><g><path d="M 55.59375 0 L 55.515625 -32.421875 L 39.609375 -5.71875 L 33.96875 -5.71875 L 18.140625 -31.734375 L 18.140625 0 L 6.40625 0 L 6.40625 -54.046875 L 16.75 -54.046875 L 36.984375 -20.453125 L 56.90625 -54.046875 L 67.171875 -54.046875 L 67.328125 0 Z M 55.59375 0 "/></g></g></g></svg>